<?xml version="1.0" encoding="UTF-8" standalone="no"?>
<!-- Generator: Adobe Illustrator 15.1.0, SVG Export Plug-In . SVG Version: 6.00 Build 0)  -->

<svg
   xmlns:dc="http://purl.org/dc/elements/1.1/"
   xmlns:cc="http://creativecommons.org/ns#"
   xmlns:rdf="http://www.w3.org/1999/02/22-rdf-syntax-ns#"
   xmlns:svg="http://www.w3.org/2000/svg"
   xmlns="http://www.w3.org/2000/svg"
   xmlns:sodipodi="http://sodipodi.sourceforge.net/DTD/sodipodi-0.dtd"
   xmlns:inkscape="http://www.inkscape.org/namespaces/inkscape"
   version="1.1"
   id="Layer_1"
   x="0px"
   y="0px"
   width="121"
   height="76"
   viewBox="0 0 121 76"
   enable-background="new 0 0 100 100"
   xml:space="preserve"
   inkscape:version="0.48.2 r9819"
   sodipodi:docname="noun_project_749_b.svg"
   inkscape:export-filename="/Users/ryan/github/garden/static/img/garden20.png"
   inkscape:export-xdpi="90"
   inkscape:export-ydpi="90"><metadata
   id="metadata23"><rdf:RDF><cc:Work
       rdf:about=""><dc:format>image/svg+xml</dc:format><dc:type
         rdf:resource="http://purl.org/dc/dcmitype/StillImage" /><dc:title></dc:title></cc:Work></rdf:RDF></metadata><defs
   id="defs21" /><sodipodi:namedview
   pagecolor="#ffffff"
   bordercolor="#666666"
   borderopacity="1"
   objecttolerance="10"
   gridtolerance="10"
   guidetolerance="10"
   inkscape:pageopacity="0"
   inkscape:pageshadow="2"
   inkscape:window-width="1377"
   inkscape:window-height="757"
   id="namedview19"
   showgrid="false"
   inkscape:zoom="6.675088"
   inkscape:cx="70.516079"
   inkscape:cy="47.519255"
   inkscape:window-x="0"
   inkscape:window-y="0"
   inkscape:window-maximized="0"
   inkscape:current-layer="Layer_1" />








<g
   id="g3082"
   transform="matrix(0.90878701,0,0,0.90878701,6.290598,6.4191932)"><path
     style="fill:#999999"
     inkscape:connector-curvature="0"
     id="path5"
     d="m 51.411841,16.848227 c 3.368153,0 6.104448,-2.735368 6.120079,-6.116402 -0.01559,-3.3709219 -2.751926,-6.1062873 -6.120079,-6.1191642 -3.382874,0.012874 -6.12008,2.7482423 -6.117323,6.1191642 -0.0012,3.380112 2.734449,6.116402 6.117323,6.116402 z" /><path
     style="fill:#999999"
     inkscape:connector-curvature="0"
     id="path7"
     d="M 29.098472,48.995667 V 30.229808 L 40.02797,24.338749 v 5.564542 c -0.0075,1.057723 0.284211,1.513931 0.687061,1.896547 l 6.247926,6.902795 c 2.806194,2.842057 6.827376,-1.077959 4.286082,-3.924616 L 45.718527,28.6607 V 17.012863 c -0.03955,-3.583386 -4.88024,-6.854973 -8.341297,-5.070635 l -14.623267,7.884179 c -1.935172,1.112911 -2.708687,3.014973 -2.716047,4.969461 v 24.264179 c 0.0062,6.619513 9.064236,6.621353 9.060556,-0.06438 z" /><path
     style="fill:#999999"
     inkscape:connector-curvature="0"
     id="path13"
     d="m 46.137932,50.779079 0.242818,0.290645 c -0.07086,-0.108535 -0.144401,-0.20603 -0.242818,-0.290645 z" /><path
     style="fill:#999999"
     inkscape:connector-curvature="0"
     id="path15"
     d="m 44.658044,50.676988 0.261206,-0.132447 c -0.09469,0.0322 -0.17751,0.07909 -0.261206,0.132447 z" /><path
     style="fill:#999999"
     sodipodi:nodetypes="cccsccccccccsccccccccc"
     inkscape:connector-curvature="0"
     id="path17"
     d="M 83.963067,54.797926 77.28008,51.456442 77.018873,51.323995 c -0.127846,-0.04323 -0.259373,-0.08002 -0.401017,-0.08002 -0.316397,0 -0.594158,0.126011 -0.818588,0.314561 l -0.243741,0.290642 -7.685011,6.134931 -3.632055,1.171221 c -1.221077,-0.344465 -0.788934,0.423536 -5.918742,-0.06799 L 55.238821,58.605079 46.38075,51.850087 46.137944,51.559445 c -0.224429,-0.188549 -0.50128,-0.31456 -0.817677,-0.31456 -0.141644,0 -0.273158,0.03675 -0.401927,0.08002 l -0.261219,0.132447 -6.682052,3.340568 -22.993993,0 0,10.218536 45.987986,0 45.987978,0 0,-10.218536 z" /><path
     sodipodi:nodetypes="ssscccscccsssscssscss"
     inkscape:connector-curvature="0"
     id="path6080-4"
     d="m 55.271182,25.574709 c -0.393108,0 -0.466138,1.137778 -0.466138,2.033195 l 0,4.066383 c 0,4.129809 2.330713,6.226639 5.43832,6.099563 l -0.776895,16.265519 c -1.553817,-4.066384 -4.661425,-8.132758 -9.322849,-6.09957 0,0 3.10762,10.165944 10.876653,10.165944 7.769044,0 10.876652,-10.165944 10.876652,-10.165944 -4.661412,-2.033188 -7.769032,2.033186 -9.322836,6.09957 L 61.797181,37.77385 c 3.10762,0.126061 5.438332,-1.969754 5.438332,-6.099563 l 0,-4.066383 c 0,-0.895417 -0.07273,-2.033195 -0.46615,-2.033195 -0.299755,0 -0.661312,0.458691 -1.087666,1.016598 l -2.330712,3.049785 c 0,0 -1.1211,-2.197266 -1.553804,-3.049785 -0.202611,-0.399115 -0.383726,-1.016598 -0.776908,-1.016598 -0.393183,0 -0.574286,0.617483 -0.776909,1.016598 -0.432691,0.852519 -1.553804,3.049785 -1.553804,3.049785 L 56.358848,26.591307 C 55.932507,26.0334 55.570949,25.574709 55.271182,25.574709 z"
     style="color:#000000;fill:#999999;fill-opacity:1;fill-rule:nonzero;stroke:none;stroke-width:2;marker:none;visibility:visible;display:inline;overflow:visible;enable-background:accumulate" /></g><rect
   style="fill:none;stroke:#88888f;stroke-width:6;stroke-miterlimit:4;stroke-opacity:0.94117647;stroke-dasharray:none"
   id="rect3090"
   width="113.03154"
   height="68.730682"
   x="4.3289609"
   y="3.5827272"
   inkscape:export-xdpi="90"
   inkscape:export-ydpi="90" /></svg>